<svg width="45" height="45" viewBox="0 0 45 45" fill="none" xmlns="http://www.w3.org/2000/svg">
<path fill-rule="evenodd" clip-rule="evenodd" d="M22.5 45C34.9264 45 45 34.9264 45 22.5C45 10.0736 34.9264 0 22.5 0C10.0736 0 0 10.0736 0 22.5C0 34.9264 10.0736 45 22.5 45ZM13.6632 33.3497L6.74622 27.4973C4.44057 25.5466 8.02714 22.512 10.0766 24.4628C11.3575 25.4382 12.1114 26.0536 12.8652 26.669C13.6191 27.2844 14.3729 27.8998 15.6539 28.8752C16.4224 28.225 16.56 28.0809 16.4812 28.1476C22.6296 22.9455 28.778 17.7434 34.6702 12.5412C36.9759 10.8072 40.5625 13.625 38.2568 15.5758L35.695 17.7434L17.2497 33.3497C16.225 34.2168 14.6879 34.2168 13.6632 33.3497Z" fill="#01BEDB"/>
</svg>
