<svg width="45" height="45" viewBox="0 0 45 45" fill="none" xmlns="http://www.w3.org/2000/svg">
<path fill-rule="evenodd" clip-rule="evenodd" d="M22.5 45C34.9264 45 45 34.9264 45 22.5C45 10.0736 34.9264 0 22.5 0C10.0736 0 0 10.0736 0 22.5C0 34.9264 10.0736 45 22.5 45ZM10.5858 11.0858C9.80472 11.8668 9.80472 13.1332 10.5858 13.9142L19.6716 23L10.5858 32.0858C9.80472 32.8668 9.80472 34.1332 10.5858 34.9142C11.3668 35.6953 12.6332 35.6953 13.4142 34.9142L22.5 25.8284L31.5858 34.9142C32.3668 35.6953 33.6331 35.6953 34.4142 34.9142C35.1952 34.1332 35.1952 32.8668 34.4142 32.0858L25.3284 23L34.4142 13.9142C35.1952 13.1332 35.1952 11.8668 34.4142 11.0858C33.6331 10.3047 32.3668 10.3047 31.5858 11.0858L22.5 20.1716L13.4142 11.0858C12.6332 10.3047 11.3668 10.3047 10.5858 11.0858Z" fill="#C6007E"/>
</svg>
