<svg width="38" height="38" viewBox="0 0 38 38" fill="none" xmlns="http://www.w3.org/2000/svg">
<g clip-path="url(#clip0_25_209)">
<path d="M30.4 22.8C30.4 31.1942 23.5942 38 15.2 38C6.8058 38 0 31.1942 0 22.8C0 14.4058 6.8058 7.6 15.2 7.6C16.2488 7.6 17.2748 7.7064 18.2666 7.9078L15.5306 10.6438C15.4204 10.64 15.3102 10.64 15.2 10.64C8.4968 10.64 3.04 16.0968 3.04 22.8C3.04 29.5032 8.4968 34.96 15.2 34.96C21.9032 34.96 27.36 29.5032 27.36 22.8C27.36 22.6898 27.36 22.5796 27.3562 22.4694L30.0922 19.7372C30.2936 20.7252 30.4 21.7512 30.4 22.8ZM30.476 0L12.882 17.594L20.406 25.118L38 7.524L30.476 0ZM10.7312 19.7448L9.12 28.88L18.2552 27.2688L10.7312 19.7448Z" fill="#01BEDB"/>
</g>
<defs>
<clipPath id="clip0_25_209">
<rect width="38" height="38" fill="white"/>
</clipPath>
</defs>
</svg>
